@startuml
namespace testingsupport {
    interface MyInterface  {
        - foo() bool

    }
    class MyStruct1 << (S,Aquamarine) >> {
        - foo() bool

    }
    class MyStruct2 << (S,Aquamarine) >> {
    }
    class MyStruct3 << (S,Aquamarine) >> {
        - foo() 

        + Foo MyStruct1

    }
}
testingsupport.MyStruct1 *-- testingsupport.MyStruct2

testingsupport.MyInterface <|-- testingsupport.MyStruct1

testingsupport.MyStruct3 o-- testingsupport.MyStruct1

@enduml